<svg width="34" height="34" viewBox="0 0 34 34" fill="none" xmlns="http://www.w3.org/2000/svg">
<path d="M33.0268 15.9342C33.7952 17.1791 32.8738 18.7427 31.3379 18.7981C25.7296 19.0035 20.0113 20.3138 14.62 22.8936L12.8373 23.856C12.8373 23.8636 12.8127 23.8166 17.1526 30.8776C17.5508 31.5237 17.3144 32.349 16.6246 32.7222L15.2185 33.4815C14.5287 33.854 13.6457 33.6329 13.2475 32.9868L8.91865 25.9727L8.216 26.3527C6.83553 27.0977 5.07048 26.6555 4.27328 25.3641L1.02682 20.1038C0.230423 18.8124 0.703131 17.1612 2.0836 16.4154L8.4876 12.9563C13.3817 9.99457 17.529 6.07301 20.6378 1.45993C21.4575 0.243435 23.3651 0.278663 24.1335 1.52364L26.9112 6.02534C28.5072 5.16337 30.5487 5.6753 31.4701 7.16838C32.3914 8.66145 31.8442 10.5705 30.2482 11.4325L33.0268 15.9342Z" fill="#D1E7FF"/>
</svg>
